<svg xmlns="http://www.w3.org/2000/svg"  viewBox="0 0 64 64" width="64px" height="64px"><path d="M 54.095703 12.216797 A 1.0001 1.0001 0 0 0 53.408203 12.521484 L 48.048828 18.054688 A 1.0001 1.0001 0 1 0 49.484375 19.445312 L 54.150391 14.630859 L 58.458984 18.804688 L 26.160156 52.150391 L 4.7109375 30.703125 L 8.953125 26.460938 L 25.371094 42.880859 A 1.0001 1.0001 0 0 0 26.796875 42.869141 L 46.095703 22.945312 A 1.0001 1.0001 0 1 0 44.658203 21.554688 L 26.066406 40.748047 L 9.6601562 24.339844 A 1.0001 1.0001 0 0 0 8.2460938 24.339844 L 2.5898438 29.996094 A 1.0001 1.0001 0 0 0 2.5898438 31.410156 L 25.464844 54.283203 A 1.0001 1.0001 0 0 0 26.888672 54.273438 L 60.591797 19.478516 A 1.0001 1.0001 0 0 0 60.568359 18.064453 L 54.822266 12.498047 A 1.0001 1.0001 0 0 0 54.095703 12.216797 z"/></svg>