<svg width="25" height="26" viewBox="0 0 25 26" fill="none" xmlns="http://www.w3.org/2000/svg">
<g clip-path="url(#clip0_925_10406)">
<path d="M19.5603 15.8302C19.0536 15.3026 18.4425 15.0205 17.7947 15.0205C17.1522 15.0205 16.5358 15.2974 16.0083 15.825L14.3576 17.4704C14.2218 17.3973 14.086 17.3294 13.9554 17.2615C13.7673 17.1674 13.5897 17.0786 13.4382 16.9846C11.892 16.0026 10.4869 14.7228 9.13916 13.0669C8.4862 12.2415 8.04741 11.5468 7.72877 10.8416C8.15711 10.4498 8.55411 10.0424 8.94066 9.6506C9.08692 9.50434 9.23318 9.35286 9.37944 9.20659C10.4764 8.10963 10.4764 6.6888 9.37944 5.59183L7.95339 4.16578C7.79145 4.00384 7.6243 3.83669 7.46759 3.66953C7.15417 3.34566 6.82508 3.01135 6.48554 2.69793C5.97885 2.19646 5.37291 1.93005 4.73562 1.93005C4.09834 1.93005 3.48195 2.19646 2.95958 2.69793C2.95436 2.70315 2.95436 2.70315 2.94913 2.70838L1.17309 4.50009C0.504466 5.16872 0.123139 5.9836 0.0395609 6.92908C-0.0858066 8.45439 0.363427 9.87522 0.708188 10.805C1.55442 13.0878 2.81854 15.2033 4.70428 17.4704C6.99224 20.2024 9.7451 22.3597 12.8897 23.8798C14.0912 24.4492 15.6948 25.123 17.4865 25.238C17.5962 25.2432 17.7112 25.2484 17.8156 25.2484C19.0223 25.2484 20.0357 24.8149 20.8297 23.953C20.8349 23.9425 20.8454 23.9373 20.8506 23.9268C21.1222 23.5977 21.4356 23.3 21.7647 22.9814C21.9893 22.7672 22.2192 22.5426 22.4438 22.3075C22.9609 21.7695 23.2326 21.1426 23.2326 20.5001C23.2326 19.8524 22.9557 19.2308 22.4281 18.7084L19.5603 15.8302ZM21.4304 21.3307C21.4252 21.3307 21.4252 21.3359 21.4304 21.3307C21.2267 21.5501 21.0177 21.7486 20.7931 21.968C20.4536 22.2918 20.1088 22.6314 19.785 23.0127C19.2574 23.5769 18.6357 23.8433 17.8209 23.8433C17.7425 23.8433 17.6589 23.8433 17.5806 23.838C16.0291 23.7388 14.5874 23.1328 13.5061 22.6157C10.5495 21.1844 7.95339 19.1524 5.79602 16.5772C4.01476 14.4302 2.82377 12.4453 2.03499 10.314C1.5492 9.01332 1.37159 7.99993 1.44995 7.044C1.50218 6.43284 1.73725 5.92614 2.17081 5.49258L3.95207 3.71132C4.20803 3.47103 4.47966 3.34044 4.74607 3.34044C5.07516 3.34044 5.34156 3.53894 5.50872 3.70609C5.51394 3.71132 5.51917 3.71654 5.52439 3.72177C5.84303 4.01951 6.14601 4.32771 6.46465 4.6568C6.62658 4.82395 6.79374 4.99111 6.96089 5.16349L8.38695 6.58955C8.94066 7.14325 8.94066 7.65517 8.38695 8.20888C8.23547 8.36036 8.0892 8.51185 7.93772 8.65811C7.49893 9.10735 7.08104 9.52524 6.62658 9.93268C6.61613 9.94313 6.60569 9.94835 6.60046 9.9588C6.15123 10.408 6.23481 10.8468 6.32883 11.1446C6.33406 11.1602 6.33928 11.1759 6.3445 11.1916C6.71538 12.09 7.23775 12.9363 8.03174 13.9444L8.03697 13.9497C9.47869 15.7257 10.9988 17.11 12.6756 18.1704C12.8897 18.3062 13.1091 18.4159 13.3181 18.5204C13.5061 18.6144 13.6837 18.7032 13.8352 18.7972C13.8561 18.8077 13.877 18.8233 13.8979 18.8338C14.0755 18.9226 14.2427 18.9644 14.415 18.9644C14.8486 18.9644 15.1202 18.6927 15.209 18.6039L16.9955 16.8175C17.1731 16.6398 17.4552 16.4257 17.7843 16.4257C18.1082 16.4257 18.3746 16.6294 18.5365 16.807C18.5417 16.8122 18.5417 16.8122 18.5469 16.8175L21.4252 19.6957C21.9632 20.2285 21.9632 20.777 21.4304 21.3307Z" fill="#FF0000"/>
<path d="M13.3756 6.38624C14.7442 6.61608 15.9875 7.26381 16.98 8.2563C17.9724 9.2488 18.615 10.492 18.85 11.8606C18.9075 12.2054 19.2052 12.4457 19.5448 12.4457C19.5866 12.4457 19.6231 12.4404 19.6649 12.4352C20.0515 12.3725 20.3074 12.0069 20.2447 11.6203C19.9627 9.96444 19.1791 8.4548 17.9829 7.25859C16.7867 6.06237 15.277 5.27882 13.6211 4.99675C13.2346 4.93406 12.8742 5.19002 12.8063 5.57135C12.7383 5.95267 12.9891 6.32355 13.3756 6.38624Z" fill="#FF0000"/>
<path d="M24.7212 11.4168C24.2563 8.69001 22.9713 6.20877 20.9967 4.23424C19.0222 2.2597 16.541 0.974679 13.8142 0.509774C13.4329 0.441867 13.0725 0.703049 13.0046 1.08438C12.9419 1.47093 13.1978 1.83136 13.5844 1.89926C16.0186 2.31193 18.2386 3.46636 20.0042 5.22673C21.7698 6.99232 22.919 9.21237 23.3317 11.6466C23.3892 11.9914 23.6869 12.2316 24.0265 12.2316C24.0682 12.2316 24.1048 12.2264 24.1466 12.2212C24.5279 12.1637 24.7891 11.7981 24.7212 11.4168Z" fill="#FF0000"/>
</g>
<defs>
<clipPath id="clip0_925_10406">
<rect width="24.75" height="24.75" fill="white" transform="translate(0 0.499512)"/>
</clipPath>
</defs>
</svg>
