<svg width="27" height="23" viewBox="0 0 27 23" fill="none" xmlns="http://www.w3.org/2000/svg">
<path d="M9.38 21.61C9.08 22.13 8.71 22.43 8.27 22.51C7.83 22.59 7.42 22.52 7.04 22.3C6.66 22.08 6.39 21.76 6.23 21.34C6.09 20.9 6.17 20.43 6.47 19.93L17.24 1.27C17.54 0.749999 17.91 0.45 18.35 0.37C18.79 0.27 19.2 0.329999 19.58 0.549999C19.96 0.769999 20.22 1.1 20.36 1.54C20.5 1.96 20.43 2.42 20.15 2.92L9.38 21.61ZM5.6 13.45C3.86 13.45 2.51 12.87 1.55 11.71C0.59 10.53 0.11 8.95 0.11 6.97C0.11 4.99 0.59 3.42 1.55 2.26C2.53 1.1 3.88 0.519999 5.6 0.519999C7.32 0.519999 8.66 1.11 9.62 2.29C10.6 3.45 11.09 5.01 11.09 6.97C11.09 8.95 10.6 10.53 9.62 11.71C8.66 12.87 7.32 13.45 5.6 13.45ZM5.6 10.57C6.18 10.57 6.63 10.29 6.95 9.73C7.29 9.15 7.46 8.23 7.46 6.97C7.46 5.71 7.29 4.81 6.95 4.27C6.63 3.71 6.18 3.43 5.6 3.43C5 3.43 4.54 3.7 4.22 4.24C3.9 4.78 3.74 5.69 3.74 6.97C3.74 8.27 3.9 9.2 4.22 9.76C4.54 10.3 5 10.57 5.6 10.57ZM21.05 22.33C19.31 22.33 17.96 21.75 17 20.59C16.04 19.41 15.56 17.82 15.56 15.82C15.56 13.84 16.04 12.28 17 11.14C17.98 9.98 19.33 9.4 21.05 9.4C22.77 9.4 24.11 9.98 25.07 11.14C26.05 12.3 26.54 13.86 26.54 15.82C26.54 17.82 26.06 19.41 25.1 20.59C24.14 21.75 22.79 22.33 21.05 22.33ZM21.05 19.42C21.65 19.42 22.11 19.14 22.43 18.58C22.75 18.02 22.91 17.1 22.91 15.82C22.91 14.58 22.74 13.68 22.4 13.12C22.08 12.56 21.63 12.28 21.05 12.28C20.45 12.28 19.99 12.55 19.67 13.09C19.35 13.63 19.19 14.54 19.19 15.82C19.19 17.12 19.35 18.05 19.67 18.61C19.99 19.15 20.45 19.42 21.05 19.42Z" fill="#FFA900" fill-opacity="0.45"/>
</svg>
