<svg width="16" height="16" viewBox="0 0 16 16" fill="none" xmlns="http://www.w3.org/2000/svg">
<path fill-rule="evenodd" clip-rule="evenodd" d="M12.206 10.8782C12.2208 10.8913 12.2352 10.9049 12.2494 10.9191L15.1998 13.8695C15.5833 14.2531 15.5778 14.8694 15.1875 15.246C14.7971 15.6227 14.1697 15.6171 13.7862 15.2335L10.8358 12.2831C10.8307 12.2781 10.8258 12.273 10.8209 12.2679C9.77169 13.037 8.47721 13.4911 7.07667 13.4911C3.57519 13.4911 0.736687 10.6526 0.736687 7.15111C0.736687 3.64964 3.57519 0.811133 7.07667 0.811133C10.5781 0.811133 13.4166 3.64964 13.4166 7.15111C13.4166 8.54405 12.9674 9.83207 12.206 10.8782ZM2.40064 7.15111C2.40064 4.56862 4.49417 2.47509 7.07667 2.47509C9.65916 2.47509 11.7527 4.56862 11.7527 7.15111C11.7527 9.73361 9.65916 11.8271 7.07667 11.8271C4.49417 11.8271 2.40064 9.73361 2.40064 7.15111Z" fill="white"/>
</svg>
