<svg width="29" height="28" viewBox="0 0 29 28" fill="none" xmlns="http://www.w3.org/2000/svg">
<path d="M13.6033 2.81699C13.9701 2.07374 15.0299 2.07374 15.3967 2.81699L18.5288 9.16318C18.6744 9.45833 18.956 9.6629 19.2817 9.71023L26.2852 10.7279C27.1054 10.8471 27.4329 11.855 26.8394 12.4336L21.7716 17.3734C21.5359 17.6031 21.4284 17.9341 21.484 18.2585L22.6804 25.2337C22.8205 26.0506 21.963 26.6736 21.2294 26.2879L14.9653 22.9946C14.674 22.8415 14.326 22.8415 14.0347 22.9946L7.77059 26.2879C7.03696 26.6736 6.17953 26.0506 6.31964 25.2337L7.51597 18.2585C7.57161 17.9341 7.46406 17.6031 7.22837 17.3734L2.16063 12.4336C1.56711 11.855 1.89462 10.8471 2.71484 10.7279L9.71829 9.71023C10.044 9.6629 10.3256 9.45833 10.4712 9.16318L13.6033 2.81699Z" stroke="#FFD481" stroke-width="3"/>
</svg>
