<svg width="167" height="17" viewBox="0 0 167 17" fill="none" xmlns="http://www.w3.org/2000/svg">
<path d="M102.898 5.25254C102.454 5.25107 102.014 5.34165 101.607 5.51854C101.2 5.69544 100.834 5.95478 100.532 6.28016C100.231 6.60554 100 6.98986 99.8551 7.40878C99.7101 7.8277 99.6539 8.27209 99.6901 8.7138C99.6499 9.07795 99.6891 9.44646 99.805 9.79408C99.9209 10.1417 100.111 10.4602 100.361 10.7279C100.612 10.9955 100.918 11.2059 101.257 11.3446C101.597 11.4834 101.963 11.5473 102.33 11.5318C102.779 11.5419 103.225 11.4577 103.64 11.2846C104.054 11.1115 104.428 10.8534 104.736 10.5271C105.044 10.2008 105.28 9.81349 105.429 9.3903C105.578 8.96711 105.635 8.51749 105.599 8.07056C105.637 7.70155 105.595 7.32861 105.474 6.97759C105.354 6.62658 105.159 6.30589 104.902 6.03779C104.645 5.76969 104.332 5.56059 103.986 5.425C103.64 5.2894 103.269 5.23055 102.898 5.25254Z" fill="white"/>
<path d="M115.085 5.25376C114.627 5.25986 114.175 5.36108 113.759 5.55097C113.342 5.74086 112.969 6.01527 112.665 6.35671C112.36 6.69816 112.13 7.09916 111.989 7.53419C111.849 7.96922 111.8 8.42874 111.847 8.88349C111.805 9.25021 111.842 9.62166 111.957 9.97261C112.072 10.3236 112.261 10.6458 112.511 10.9175C112.761 11.1892 113.067 11.4039 113.408 11.5471C113.749 11.6903 114.117 11.7586 114.487 11.7475C114.942 11.7493 115.392 11.6563 115.809 11.4745C116.226 11.2926 116.6 11.026 116.908 10.6915C117.215 10.3571 117.45 9.96221 117.596 9.53221C117.742 9.1022 117.796 8.64651 117.756 8.1943C117.802 7.82047 117.767 7.44103 117.653 7.08188C117.539 6.72273 117.349 6.39232 117.096 6.11319C116.842 5.83407 116.532 5.61279 116.185 5.46448C115.838 5.31616 115.463 5.24428 115.085 5.25376Z" fill="white"/>
<path d="M158.886 13.5847H156.538L154.389 3.41532H157.029L158.256 9.72522L163.858 0H134.698L134.269 2.23604H131.813L132.197 0H96.2383L93 17H98.6938C98.0596 16.6652 97.5195 16.1773 97.1227 15.5807C96.726 14.9841 96.4852 14.2979 96.4224 13.5847H99.231C99.3613 14.0778 99.6589 14.5106 100.073 14.8093C100.487 15.1081 100.992 15.2545 101.502 15.2234C102.376 15.2622 103.235 14.9909 103.927 14.4577C104.367 14.0417 104.68 13.5111 104.833 12.9261C104.061 13.5163 103.102 13.8098 102.132 13.7532C100.925 13.7699 99.7534 13.3511 98.8319 12.5739C98.312 12.112 97.9038 11.5386 97.638 10.8966C97.3722 10.2547 97.2557 9.56093 97.2972 8.86757C97.2691 8.0737 97.409 7.28285 97.7079 6.54659C98.0067 5.81032 98.4577 5.1452 99.0315 4.59459C100.096 3.59042 101.511 3.04086 102.976 3.06306C103.633 2.99271 104.298 3.09736 104.901 3.36636C105.505 3.63537 106.027 4.05914 106.413 4.59459L106.659 3.35405H108.9L107.089 12.773C106.9 14.0411 106.302 15.2132 105.385 16.1117C104.931 16.4967 104.411 16.7975 103.85 17H163.244L166.667 0L158.886 13.5847ZM116.85 13.5847L116.957 12.9874C116.188 13.6369 115.201 13.9708 114.195 13.9216C113.031 13.9339 111.903 13.5259 111.018 12.773C110.493 12.295 110.083 11.7055 109.817 11.0481C109.552 10.3907 109.437 9.68215 109.483 8.97477C109.456 8.16777 109.593 7.36373 109.886 6.61099C110.179 5.85825 110.621 5.17238 111.186 4.59459C112.239 3.60153 113.636 3.05282 115.085 3.06306C115.749 2.98748 116.422 3.08946 117.034 3.35856C117.646 3.62766 118.176 4.05422 118.568 4.59459L118.814 3.35405H121.085L119.09 13.5847H116.85ZM128.636 11.4252L128.299 13.5847H120.441L120.871 11.4252L126.457 5.57477H122.344L122.774 3.41532H129.833L129.404 5.57477L123.894 11.4252H128.636ZM129.542 13.5847L131.537 3.41532H133.977L131.997 13.5847H129.542ZM142.357 5.57477L136.786 11.4252H141.528L141.114 13.5847H133.333L133.762 11.4252L139.333 5.57477H135.236L135.665 3.41532H142.786L142.357 5.57477ZM152.01 12.3595C151.471 12.8752 150.832 13.2767 150.133 13.5399C149.434 13.8031 148.689 13.9225 147.943 13.891C147.274 13.9302 146.604 13.8337 145.974 13.6073C145.343 13.381 144.766 13.0294 144.275 12.5739C143.814 12.1043 143.456 11.5451 143.221 10.9313C142.986 10.3174 142.88 9.66187 142.909 9.00541C142.89 8.19211 143.034 7.38321 143.332 6.62591C143.629 5.86861 144.075 5.17807 144.643 4.59459C145.191 4.07682 145.837 3.67437 146.544 3.41124C147.25 3.14811 148.003 3.0297 148.756 3.06306C149.422 3.02 150.09 3.11629 150.716 3.34575C151.343 3.5752 151.914 3.93276 152.394 4.39549C152.847 4.86048 153.2 5.41258 153.432 6.01816C153.664 6.62374 153.77 7.27015 153.744 7.91802C153.772 9.56812 153.149 11.1631 152.01 12.3595Z" fill="white"/>
<path d="M148.619 5.25266C148.177 5.24279 147.739 5.32798 147.334 5.50241C146.929 5.67685 146.566 5.93644 146.271 6.26347C145.653 6.99379 145.33 7.92745 145.365 8.88239C145.335 9.59911 145.557 10.3037 145.994 10.8734C146.24 11.1706 146.554 11.4049 146.909 11.5568C147.264 11.7086 147.65 11.7736 148.035 11.7464C148.478 11.7543 148.917 11.6667 149.322 11.4896C149.727 11.3125 150.089 11.05 150.384 10.7202C151.018 10.0038 151.353 9.07204 151.32 8.11662C151.341 7.39615 151.108 6.69114 150.66 6.12563C150.411 5.83127 150.098 5.599 149.743 5.44742C149.389 5.29583 149.004 5.22913 148.619 5.25266Z" fill="white"/>
<path d="M0.84 14V5.36H4.176C4.26 5.36 4.354 5.364 4.458 5.372C4.566 5.376 4.674 5.388 4.782 5.408C5.234 5.476 5.616 5.634 5.928 5.882C6.244 6.126 6.482 6.434 6.642 6.806C6.806 7.178 6.888 7.59 6.888 8.042C6.888 8.49 6.806 8.9 6.642 9.272C6.478 9.644 6.238 9.954 5.922 10.202C5.61 10.446 5.23 10.602 4.782 10.67C4.674 10.686 4.566 10.698 4.458 10.706C4.354 10.714 4.26 10.718 4.176 10.718H1.722V14H0.84ZM1.722 9.878H4.152C4.224 9.878 4.308 9.874 4.404 9.866C4.5 9.858 4.594 9.844 4.686 9.824C4.982 9.76 5.224 9.638 5.412 9.458C5.604 9.278 5.746 9.064 5.838 8.816C5.934 8.568 5.982 8.31 5.982 8.042C5.982 7.774 5.934 7.516 5.838 7.268C5.746 7.016 5.604 6.8 5.412 6.62C5.224 6.44 4.982 6.318 4.686 6.254C4.594 6.234 4.5 6.222 4.404 6.218C4.308 6.21 4.224 6.206 4.152 6.206H1.722V9.878ZM9.93619 14.18C9.44819 14.18 9.03819 14.092 8.70619 13.916C8.37819 13.74 8.13219 13.506 7.96819 13.214C7.80419 12.922 7.72219 12.604 7.72219 12.26C7.72219 11.908 7.79219 11.608 7.93219 11.36C8.07619 11.108 8.27019 10.902 8.51419 10.742C8.76219 10.582 9.04819 10.46 9.37219 10.376C9.70019 10.296 10.0622 10.226 10.4582 10.166C10.8582 10.102 11.2482 10.048 11.6282 10.004C12.0122 9.956 12.3482 9.91 12.6362 9.866L12.3242 10.058C12.3362 9.418 12.2122 8.944 11.9522 8.636C11.6922 8.328 11.2402 8.174 10.5962 8.174C10.1522 8.174 9.77619 8.274 9.46819 8.474C9.16419 8.674 8.95019 8.99 8.82619 9.422L7.96819 9.17C8.11619 8.59 8.41419 8.14 8.86219 7.82C9.31019 7.5 9.89219 7.34 10.6082 7.34C11.2002 7.34 11.7022 7.452 12.1142 7.676C12.5302 7.896 12.8242 8.216 12.9962 8.636C13.0762 8.824 13.1282 9.034 13.1522 9.266C13.1762 9.498 13.1882 9.734 13.1882 9.974V14H12.4022V12.374L12.6302 12.47C12.4102 13.026 12.0682 13.45 11.6042 13.742C11.1402 14.034 10.5842 14.18 9.93619 14.18ZM10.0382 13.418C10.4502 13.418 10.8102 13.344 11.1182 13.196C11.4262 13.048 11.6742 12.846 11.8622 12.59C12.0502 12.33 12.1722 12.038 12.2282 11.714C12.2762 11.506 12.3022 11.278 12.3062 11.03C12.3102 10.778 12.3122 10.59 12.3122 10.466L12.6482 10.64C12.3482 10.68 12.0222 10.72 11.6702 10.76C11.3222 10.8 10.9782 10.846 10.6382 10.898C10.3022 10.95 9.99819 11.012 9.72619 11.084C9.54219 11.136 9.36419 11.21 9.19219 11.306C9.02019 11.398 8.87819 11.522 8.76619 11.678C8.65819 11.834 8.60419 12.028 8.60419 12.26C8.60419 12.448 8.65019 12.63 8.74219 12.806C8.83819 12.982 8.99019 13.128 9.19819 13.244C9.41019 13.36 9.69019 13.418 10.0382 13.418ZM17.0842 14.18C16.4322 14.18 15.8622 14.038 15.3742 13.754C14.8902 13.466 14.5082 13.068 14.2282 12.56L14.9362 12.11C15.1722 12.51 15.4662 12.814 15.8182 13.022C16.1702 13.23 16.5742 13.334 17.0302 13.334C17.5062 13.334 17.8882 13.224 18.1762 13.004C18.4642 12.784 18.6082 12.482 18.6082 12.098C18.6082 11.834 18.5462 11.624 18.4222 11.468C18.3022 11.312 18.1182 11.2 17.8702 11.132C17.6262 11.064 17.3202 11.03 16.9522 11.03H16.1842V10.274H16.9402C17.3882 10.274 17.7482 10.194 18.0202 10.034C18.2962 9.87 18.4342 9.614 18.4342 9.266C18.4342 8.898 18.2962 8.626 18.0202 8.45C17.7482 8.27 17.4222 8.18 17.0422 8.18C16.6582 8.18 16.2942 8.26 15.9502 8.42C15.6102 8.576 15.3242 8.778 15.0922 9.026L14.5282 8.432C14.8522 8.076 15.2302 7.806 15.6622 7.622C16.0982 7.434 16.5802 7.34 17.1082 7.34C17.5242 7.34 17.9002 7.414 18.2362 7.562C18.5762 7.706 18.8442 7.918 19.0402 8.198C19.2402 8.478 19.3402 8.814 19.3402 9.206C19.3402 9.574 19.2502 9.892 19.0702 10.16C18.8942 10.428 18.6442 10.65 18.3202 10.826L18.2722 10.496C18.5522 10.548 18.7842 10.66 18.9682 10.832C19.1522 11.004 19.2882 11.21 19.3762 11.45C19.4642 11.69 19.5082 11.934 19.5082 12.182C19.5082 12.594 19.4002 12.95 19.1842 13.25C18.9722 13.546 18.6822 13.776 18.3142 13.94C17.9502 14.1 17.5402 14.18 17.0842 14.18ZM23.7422 14.18C23.1462 14.18 22.6422 14.03 22.2302 13.73C21.8182 13.426 21.5062 13.016 21.2942 12.5C21.0822 11.98 20.9762 11.398 20.9762 10.754C20.9762 10.098 21.0822 9.514 21.2942 9.002C21.5102 8.486 21.8262 8.08 22.2422 7.784C22.6582 7.488 23.1702 7.34 23.7782 7.34C24.3702 7.34 24.8782 7.49 25.3022 7.79C25.7262 8.09 26.0502 8.498 26.2742 9.014C26.5022 9.53 26.6162 10.11 26.6162 10.754C26.6162 11.402 26.5022 11.984 26.2742 12.5C26.0462 13.016 25.7182 13.426 25.2902 13.73C24.8622 14.03 24.3462 14.18 23.7422 14.18ZM20.8262 16.88V7.52H21.6182V12.398H21.7142V16.88H20.8262ZM23.6522 13.358C24.1042 13.358 24.4802 13.244 24.7802 13.016C25.0802 12.788 25.3042 12.478 25.4522 12.086C25.6042 11.69 25.6802 11.246 25.6802 10.754C25.6802 10.266 25.6062 9.826 25.4582 9.434C25.3102 9.042 25.0842 8.732 24.7802 8.504C24.4802 8.276 24.0982 8.162 23.6342 8.162C23.1822 8.162 22.8062 8.272 22.5062 8.492C22.2102 8.712 21.9882 9.018 21.8402 9.41C21.6922 9.798 21.6182 10.246 21.6182 10.754C21.6182 11.254 21.6922 11.702 21.8402 12.098C21.9882 12.49 22.2122 12.798 22.5122 13.022C22.8122 13.246 23.1922 13.358 23.6522 13.358ZM29.7878 14.18C29.2998 14.18 28.8898 14.092 28.5578 13.916C28.2298 13.74 27.9838 13.506 27.8198 13.214C27.6558 12.922 27.5738 12.604 27.5738 12.26C27.5738 11.908 27.6438 11.608 27.7838 11.36C27.9278 11.108 28.1218 10.902 28.3658 10.742C28.6138 10.582 28.8998 10.46 29.2238 10.376C29.5518 10.296 29.9138 10.226 30.3098 10.166C30.7098 10.102 31.0998 10.048 31.4798 10.004C31.8638 9.956 32.1998 9.91 32.4878 9.866L32.1758 10.058C32.1878 9.418 32.0638 8.944 31.8038 8.636C31.5438 8.328 31.0918 8.174 30.4478 8.174C30.0038 8.174 29.6278 8.274 29.3198 8.474C29.0158 8.674 28.8018 8.99 28.6777 9.422L27.8198 9.17C27.9678 8.59 28.2658 8.14 28.7138 7.82C29.1618 7.5 29.7438 7.34 30.4598 7.34C31.0518 7.34 31.5538 7.452 31.9658 7.676C32.3818 7.896 32.6758 8.216 32.8478 8.636C32.9278 8.824 32.9798 9.034 33.0038 9.266C33.0278 9.498 33.0398 9.734 33.0398 9.974V14H32.2538V12.374L32.4818 12.47C32.2618 13.026 31.9198 13.45 31.4558 13.742C30.9918 14.034 30.4358 14.18 29.7878 14.18ZM29.8898 13.418C30.3018 13.418 30.6618 13.344 30.9698 13.196C31.2778 13.048 31.5258 12.846 31.7138 12.59C31.9018 12.33 32.0238 12.038 32.0798 11.714C32.1278 11.506 32.1538 11.278 32.1578 11.03C32.1618 10.778 32.1638 10.59 32.1638 10.466L32.4998 10.64C32.1998 10.68 31.8738 10.72 31.5218 10.76C31.1738 10.8 30.8298 10.846 30.4898 10.898C30.1538 10.95 29.8498 11.012 29.5778 11.084C29.3938 11.136 29.2158 11.21 29.0438 11.306C28.8718 11.398 28.7298 11.522 28.6178 11.678C28.5098 11.834 28.4558 12.028 28.4558 12.26C28.4558 12.448 28.5018 12.63 28.5938 12.806C28.6898 12.982 28.8418 13.128 29.0498 13.244C29.2618 13.36 29.5418 13.418 29.8898 13.418ZM37.1997 14.186C36.5957 14.182 36.0777 14.05 35.6457 13.79C35.2137 13.53 34.8777 13.142 34.6377 12.626C34.4017 12.11 34.2737 11.466 34.2537 10.694C34.2417 10.354 34.2497 9.984 34.2777 9.584C34.3057 9.18 34.3497 8.796 34.4097 8.432C34.4697 8.068 34.5417 7.772 34.6257 7.544C34.7297 7.248 34.8777 6.972 35.0697 6.716C35.2657 6.456 35.4917 6.244 35.7477 6.08C35.9957 5.912 36.2757 5.782 36.5877 5.69C36.9037 5.594 37.2317 5.52 37.5717 5.468C37.9157 5.416 38.2557 5.37 38.5917 5.33C38.9317 5.29 39.2457 5.24 39.5337 5.18L39.6297 5.978C39.4097 6.022 39.1497 6.062 38.8497 6.098C38.5497 6.134 38.2357 6.178 37.9077 6.23C37.5797 6.278 37.2657 6.344 36.9657 6.428C36.6657 6.512 36.4097 6.622 36.1977 6.758C35.8737 6.954 35.6237 7.25 35.4477 7.646C35.2757 8.042 35.1697 8.496 35.1297 9.008C35.3777 8.62 35.7057 8.328 36.1137 8.132C36.5257 7.936 36.9717 7.838 37.4517 7.838C38.0357 7.838 38.5377 7.972 38.9577 8.24C39.3817 8.508 39.7077 8.88 39.9357 9.356C40.1637 9.832 40.2777 10.378 40.2777 10.994C40.2777 11.638 40.1517 12.2 39.8997 12.68C39.6517 13.16 39.2977 13.532 38.8377 13.796C38.3777 14.056 37.8317 14.186 37.1997 14.186ZM37.2657 13.34C37.9457 13.34 38.4617 13.128 38.8137 12.704C39.1697 12.28 39.3477 11.716 39.3477 11.012C39.3477 10.292 39.1637 9.724 38.7957 9.308C38.4317 8.892 37.9177 8.684 37.2537 8.684C36.5897 8.684 36.0797 8.892 35.7237 9.308C35.3677 9.724 35.1897 10.292 35.1897 11.012C35.1897 11.732 35.3677 12.3 35.7237 12.716C36.0797 13.132 36.5937 13.34 37.2657 13.34ZM44.3038 14.18C43.6598 14.18 43.1098 14.034 42.6538 13.742C42.1978 13.45 41.8478 13.046 41.6038 12.53C41.3598 12.014 41.2378 11.422 41.2378 10.754C41.2378 10.074 41.3618 9.478 41.6098 8.966C41.8578 8.454 42.2098 8.056 42.6658 7.772C43.1258 7.484 43.6718 7.34 44.3038 7.34C44.9518 7.34 45.5038 7.486 45.9598 7.778C46.4198 8.066 46.7698 8.468 47.0098 8.984C47.2538 9.496 47.3758 10.086 47.3758 10.754C47.3758 11.434 47.2538 12.032 47.0098 12.548C46.7658 13.06 46.4138 13.46 45.9538 13.748C45.4938 14.036 44.9438 14.18 44.3038 14.18ZM44.3038 13.334C45.0238 13.334 45.5598 13.096 45.9118 12.62C46.2638 12.14 46.4398 11.518 46.4398 10.754C46.4398 9.97 46.2618 9.346 45.9058 8.882C45.5538 8.418 45.0198 8.186 44.3038 8.186C43.8198 8.186 43.4198 8.296 43.1038 8.516C42.7918 8.732 42.5578 9.034 42.4018 9.422C42.2498 9.806 42.1738 10.25 42.1738 10.754C42.1738 11.534 42.3538 12.16 42.7138 12.632C43.0738 13.1 43.6038 13.334 44.3038 13.334ZM50.2933 14V8.336H47.9953V7.52H53.4733V8.336H51.1753V14H50.2933ZM56.237 14.18C55.749 14.18 55.339 14.092 55.007 13.916C54.679 13.74 54.433 13.506 54.269 13.214C54.105 12.922 54.023 12.604 54.023 12.26C54.023 11.908 54.093 11.608 54.233 11.36C54.377 11.108 54.571 10.902 54.815 10.742C55.063 10.582 55.349 10.46 55.673 10.376C56.001 10.296 56.363 10.226 56.759 10.166C57.159 10.102 57.549 10.048 57.929 10.004C58.313 9.956 58.649 9.91 58.937 9.866L58.625 10.058C58.637 9.418 58.513 8.944 58.253 8.636C57.993 8.328 57.541 8.174 56.897 8.174C56.453 8.174 56.077 8.274 55.769 8.474C55.465 8.674 55.251 8.99 55.127 9.422L54.269 9.17C54.417 8.59 54.715 8.14 55.163 7.82C55.611 7.5 56.193 7.34 56.909 7.34C57.501 7.34 58.003 7.452 58.415 7.676C58.831 7.896 59.125 8.216 59.297 8.636C59.377 8.824 59.429 9.034 59.453 9.266C59.477 9.498 59.489 9.734 59.489 9.974V14H58.703V12.374L58.931 12.47C58.711 13.026 58.369 13.45 57.905 13.742C57.441 14.034 56.885 14.18 56.237 14.18ZM56.339 13.418C56.751 13.418 57.111 13.344 57.419 13.196C57.727 13.048 57.975 12.846 58.163 12.59C58.351 12.33 58.473 12.038 58.529 11.714C58.577 11.506 58.603 11.278 58.607 11.03C58.611 10.778 58.613 10.59 58.613 10.466L58.949 10.64C58.649 10.68 58.323 10.72 57.971 10.76C57.623 10.8 57.279 10.846 56.939 10.898C56.603 10.95 56.299 11.012 56.027 11.084C55.843 11.136 55.665 11.21 55.493 11.306C55.321 11.398 55.179 11.522 55.067 11.678C54.959 11.834 54.905 12.028 54.905 12.26C54.905 12.448 54.951 12.63 55.043 12.806C55.139 12.982 55.291 13.128 55.499 13.244C55.711 13.36 55.991 13.418 56.339 13.418ZM61.0449 14V7.52H61.9269V10.334H65.5809V7.52H66.4629V14H65.5809V11.18H61.9269V14H61.0449ZM70.8468 14.18C70.2028 14.18 69.6528 14.034 69.1968 13.742C68.7408 13.45 68.3908 13.046 68.1468 12.53C67.9028 12.014 67.7808 11.422 67.7808 10.754C67.7808 10.074 67.9048 9.478 68.1528 8.966C68.4008 8.454 68.7528 8.056 69.2088 7.772C69.6688 7.484 70.2148 7.34 70.8468 7.34C71.4948 7.34 72.0468 7.486 72.5028 7.778C72.9628 8.066 73.3128 8.468 73.5528 8.984C73.7968 9.496 73.9188 10.086 73.9188 10.754C73.9188 11.434 73.7968 12.032 73.5528 12.548C73.3088 13.06 72.9568 13.46 72.4968 13.748C72.0368 14.036 71.4868 14.18 70.8468 14.18ZM70.8468 13.334C71.5668 13.334 72.1028 13.096 72.4548 12.62C72.8068 12.14 72.9828 11.518 72.9828 10.754C72.9828 9.97 72.8048 9.346 72.4488 8.882C72.0968 8.418 71.5628 8.186 70.8468 8.186C70.3628 8.186 69.9628 8.296 69.6468 8.516C69.3348 8.732 69.1008 9.034 68.9448 9.422C68.7928 9.806 68.7168 10.25 68.7168 10.754C68.7168 11.534 68.8968 12.16 69.2568 12.632C69.6168 13.1 70.1468 13.334 70.8468 13.334ZM77.6387 14V7.52H80.3087C80.4447 7.52 80.6087 7.528 80.8007 7.544C80.9967 7.56 81.1787 7.59 81.3467 7.634C81.7107 7.73 82.0027 7.926 82.2227 8.222C82.4467 8.518 82.5587 8.874 82.5587 9.29C82.5587 9.522 82.5227 9.73 82.4507 9.914C82.3827 10.094 82.2847 10.25 82.1567 10.382C82.0967 10.45 82.0307 10.51 81.9587 10.562C81.8867 10.61 81.8167 10.65 81.7487 10.682C81.8767 10.706 82.0147 10.762 82.1627 10.85C82.3947 10.986 82.5707 11.17 82.6907 11.402C82.8107 11.63 82.8707 11.908 82.8707 12.236C82.8707 12.68 82.7647 13.042 82.5527 13.322C82.3407 13.602 82.0567 13.794 81.7007 13.898C81.5407 13.942 81.3667 13.97 81.1787 13.982C80.9947 13.994 80.8207 14 80.6567 14H77.6387ZM78.5267 13.25H80.6147C80.6987 13.25 80.8047 13.244 80.9327 13.232C81.0607 13.216 81.1747 13.196 81.2747 13.172C81.5107 13.112 81.6827 12.992 81.7907 12.812C81.9027 12.628 81.9587 12.428 81.9587 12.212C81.9587 11.928 81.8747 11.696 81.7067 11.516C81.5427 11.332 81.3227 11.22 81.0467 11.18C80.9547 11.16 80.8587 11.148 80.7587 11.144C80.6587 11.14 80.5687 11.138 80.4887 11.138H78.5267V13.25ZM78.5267 10.382H80.3387C80.4427 10.382 80.5587 10.376 80.6867 10.364C80.8187 10.348 80.9327 10.322 81.0287 10.286C81.2367 10.214 81.3887 10.09 81.4847 9.914C81.5847 9.738 81.6347 9.546 81.6347 9.338C81.6347 9.11 81.5807 8.91 81.4727 8.738C81.3687 8.566 81.2107 8.446 80.9987 8.378C80.8547 8.326 80.6987 8.296 80.5307 8.288C80.3667 8.28 80.2627 8.276 80.2187 8.276H78.5267V10.382Z" fill="white"/>
</svg>
