<svg width="15" height="15" viewBox="0 0 15 15" fill="none" xmlns="http://www.w3.org/2000/svg">
<path d="M13.6816 2.22656H1.31836C0.589951 2.22656 0 2.82018 0 3.54492V11.4551C0 12.1841 0.594287 12.7734 1.31836 12.7734H13.6816C14.404 12.7734 15 12.1866 15 11.4551V3.54492C15 2.82146 14.4124 2.22656 13.6816 2.22656ZM13.497 3.10547C13.2277 3.37339 8.59228 7.98437 8.43223 8.14356C8.1832 8.39259 7.85215 8.5297 7.5 8.5297C7.14785 8.5297 6.8168 8.39256 6.56695 8.14274C6.45932 8.03566 1.87509 3.47561 1.50299 3.10547H13.497ZM0.878906 11.2762V3.72437L4.67689 7.50234L0.878906 11.2762ZM1.50354 11.8945L5.30004 8.12218L5.9463 8.76504C6.36132 9.18006 6.9131 9.4086 7.5 9.4086C8.0869 9.4086 8.63868 9.18006 9.05288 8.76586L9.69996 8.12218L13.4965 11.8945H1.50354ZM14.1211 11.2762L10.3231 7.50234L14.1211 3.72437V11.2762Z" fill="white"/>
</svg>
