<svg width="117" height="27" viewBox="0 0 117 27" fill="none" xmlns="http://www.w3.org/2000/svg">
<path d="M53.0009 16.3553V12.6996C53.0009 11.3202 52.1211 10.3916 50.7051 10.3794C50.3018 10.3534 49.899 10.4359 49.5385 10.6186C49.178 10.8012 48.873 11.0771 48.6555 11.4177C48.4572 11.0872 48.1735 10.8164 47.8343 10.6337C47.495 10.4509 47.1127 10.3631 46.7277 10.3794C46.3924 10.3633 46.0588 10.4348 45.7596 10.5869C45.4604 10.7391 45.2061 10.9666 45.0217 11.2471V10.5159H43.752V16.3553H45.0339V13.1212C45.0339 12.1074 45.5944 11.5712 46.4621 11.5712C47.3297 11.5712 47.7318 12.1196 47.7318 13.109V16.3553H49.0064V13.1212C49.0064 12.1074 49.5913 11.5712 50.4346 11.5712C51.2778 11.5712 51.7165 12.1196 51.7165 13.109V16.3553H53.0009ZM71.9692 10.5208H69.8952V8.75144H68.6132V10.5208H67.4288V11.6809H68.6132V14.3398C68.6132 15.6949 69.1372 16.5015 70.6385 16.5015C71.1992 16.5034 71.7491 16.3471 72.2251 16.0507L71.8595 14.9637C71.5188 15.1666 71.1323 15.2798 70.736 15.2927C70.1023 15.2927 69.8927 14.9028 69.8927 14.3179V11.6809H71.9667L71.9692 10.5208ZM82.7974 10.3746C82.4878 10.3655 82.1815 10.4403 81.9109 10.5908C81.6402 10.7414 81.4152 10.9622 81.2596 11.23V10.5208H80.002V16.3553H81.2718V13.0847C81.2718 12.1098 81.6861 11.5834 82.5171 11.5834C82.789 11.5795 83.059 11.6292 83.3116 11.7296L83.7016 10.533C83.4114 10.4292 83.1056 10.3756 82.7974 10.3746ZM66.4271 10.9839C65.7082 10.5568 64.8817 10.3453 64.046 10.3746C62.5691 10.3746 61.6089 11.0838 61.6089 12.2414C61.6089 13.1943 62.3157 13.7793 63.622 13.962L64.2191 14.0473C64.9137 14.1448 65.2451 14.3276 65.2451 14.6566C65.2451 15.1075 64.7821 15.3658 63.9144 15.3658C63.2145 15.3881 62.5275 15.1734 61.9647 14.7566L61.3871 15.7436C62.1265 16.2606 63.0125 16.5263 63.9144 16.5015C65.5985 16.5015 66.5758 15.707 66.5758 14.5981C66.5758 13.5721 65.8057 13.0359 64.5383 12.8531L63.9412 12.7678C63.3929 12.6947 62.9518 12.5851 62.9518 12.1951C62.9518 11.7686 63.3661 11.5127 64.0631 11.5127C64.7017 11.5222 65.3274 11.6941 65.8812 12.0123L66.4271 10.9839ZM100.43 10.3746C100.121 10.3655 99.8142 10.4403 99.5436 10.5908C99.2729 10.7414 99.0479 10.9622 98.8923 11.23V10.5208H97.6347V16.3553H98.9045V13.0847C98.9045 12.1098 99.3188 11.5834 100.15 11.5834C100.422 11.5795 100.692 11.6292 100.944 11.7296L101.334 10.533C101.044 10.4292 100.738 10.3756 100.43 10.3746ZM84.0793 13.4381C84.0793 15.2074 85.3125 16.5015 87.1916 16.5015C87.9535 16.5392 88.702 16.2906 89.29 15.8045L88.6807 14.7785C88.2417 15.1128 87.7067 15.2965 87.155 15.3025C86.1412 15.3025 85.3978 14.5567 85.3978 13.4356C85.3978 12.3145 86.1436 11.581 87.155 11.5688C87.7067 11.5747 88.2417 11.7585 88.6807 12.0928L89.29 11.0667C88.702 10.5806 87.9535 10.332 87.1916 10.3697C85.3125 10.3697 84.0793 11.6638 84.0793 13.4332V13.4381ZM95.9677 13.4381V10.5135H94.698V11.2227C94.4815 10.9433 94.2012 10.7199 93.8807 10.5711C93.5601 10.4222 93.2086 10.3524 92.8555 10.3673C91.2202 10.3673 89.9309 11.6492 89.9309 13.4307C89.9309 15.2123 91.2129 16.4942 92.8555 16.4942C93.2086 16.5091 93.5601 16.4393 93.8807 16.2904C94.2012 16.1416 94.4815 15.9182 94.698 15.6388V16.3456H95.9677V13.4381ZM91.2445 13.4381C91.2445 12.412 91.9148 11.5712 93.0139 11.5712C94.0643 11.5712 94.7711 12.3779 94.7711 13.4381C94.7711 14.4982 94.0643 15.3049 93.0139 15.3049C91.9148 15.3049 91.2445 14.4617 91.2445 13.4381ZM75.9247 10.3746C74.2187 10.3746 73.0196 11.62 73.0196 13.4381C73.0196 15.2927 74.265 16.5015 76.01 16.5015C76.8813 16.5321 77.7333 16.2406 78.4032 15.6827L77.7818 14.7419C77.2971 15.1298 76.6965 15.3442 76.0758 15.3512C75.2569 15.3512 74.5136 14.9735 74.3308 13.9231H78.664C78.6762 13.7646 78.6884 13.6062 78.6884 13.4356C78.6884 11.6175 77.5527 10.3721 75.9174 10.3721L75.9247 10.3746ZM75.9003 11.5103C76.7192 11.5103 77.2432 12.0221 77.3772 12.9263H74.3527C74.4867 12.083 74.9985 11.5103 75.9027 11.5103H75.9003ZM107.742 13.4381V8.17627H106.472V11.2276C106.255 10.9482 105.975 10.7248 105.655 10.5759C105.334 10.4271 104.982 10.3572 104.629 10.3721C102.994 10.3721 101.705 11.6541 101.705 13.4356C101.705 15.2172 102.987 16.4991 104.629 16.4991C104.982 16.514 105.334 16.4441 105.655 16.2953C105.975 16.1465 106.255 15.923 106.472 15.6437V16.3504H107.742V13.4381ZM109.226 15.8167C109.276 15.8165 109.326 15.8265 109.372 15.846C109.417 15.865 109.457 15.8923 109.491 15.9264C109.525 15.9599 109.553 15.9996 109.572 16.0434C109.591 16.0888 109.602 16.1377 109.602 16.1872C109.602 16.2366 109.591 16.2855 109.572 16.3309C109.553 16.3747 109.525 16.4144 109.491 16.4479C109.457 16.4819 109.416 16.5092 109.372 16.5284C109.326 16.548 109.276 16.558 109.226 16.5576C109.151 16.5585 109.079 16.5375 109.016 16.4972C108.954 16.4569 108.905 16.3991 108.875 16.3309C108.855 16.2855 108.845 16.2366 108.845 16.1872C108.845 16.1377 108.855 16.0888 108.875 16.0434C108.913 15.9539 108.985 15.883 109.075 15.846C109.124 15.8254 109.177 15.8155 109.231 15.8167H109.226ZM109.226 16.4747C109.264 16.4753 109.302 16.4679 109.338 16.4528C109.371 16.4383 109.402 16.4176 109.428 16.3919C109.482 16.3375 109.513 16.2639 109.513 16.1872C109.513 16.1104 109.482 16.0368 109.428 15.9824C109.402 15.9566 109.372 15.9359 109.338 15.9215C109.302 15.9066 109.264 15.8991 109.226 15.8996C109.187 15.8991 109.148 15.9065 109.111 15.9215C109.068 15.9401 109.029 15.969 109 16.0057C108.97 16.0424 108.95 16.0858 108.941 16.1322C108.931 16.1786 108.934 16.2265 108.947 16.2717C108.961 16.317 108.985 16.3582 109.019 16.3919C109.045 16.418 109.077 16.4386 109.111 16.4528C109.149 16.4685 109.19 16.476 109.231 16.4747H109.226ZM109.248 16.0117C109.284 16.0091 109.32 16.0195 109.35 16.0409C109.362 16.0505 109.372 16.0628 109.378 16.0768C109.384 16.0907 109.387 16.106 109.387 16.1214C109.387 16.1345 109.385 16.1477 109.38 16.1599C109.375 16.172 109.367 16.183 109.357 16.192C109.335 16.2119 109.307 16.2239 109.277 16.2262L109.389 16.3553H109.301L109.197 16.2262H109.162V16.3553H109.089V16.0141L109.248 16.0117ZM109.162 16.075V16.1677H109.248C109.263 16.1721 109.279 16.1721 109.294 16.1677C109.3 16.1639 109.304 16.1588 109.307 16.1528C109.31 16.1469 109.311 16.1402 109.311 16.1335C109.311 16.1269 109.31 16.1202 109.307 16.1143C109.304 16.1083 109.3 16.1032 109.294 16.0994C109.279 16.095 109.263 16.095 109.248 16.0994L109.162 16.075ZM103.023 13.4381C103.023 12.412 103.693 11.5712 104.793 11.5712C105.843 11.5712 106.55 12.3779 106.55 13.4381C106.55 14.4982 105.843 15.3049 104.793 15.3049C103.693 15.3049 103.023 14.4617 103.023 13.4381ZM60.1539 13.4381V10.5135H58.8842V11.2227C58.6676 10.9457 58.3882 10.7243 58.0691 10.5768C57.75 10.4293 57.4003 10.36 57.049 10.3746C55.4137 10.3746 54.1244 11.6565 54.1244 13.4381C54.1244 15.2196 55.4064 16.5015 57.049 16.5015C57.4021 16.5164 57.7536 16.4466 58.0742 16.2977C58.3947 16.1489 58.675 15.9255 58.8915 15.6461V16.3529H60.1612L60.1539 13.4381ZM55.4307 13.4381C55.4307 12.412 56.1009 11.5712 57.2001 11.5712C58.2505 11.5712 58.9573 12.3779 58.9573 13.4381C58.9573 14.4982 58.2505 15.3049 57.2001 15.3049C56.1009 15.3049 55.4307 14.4641 55.4307 13.4381Z" fill="white" fill-opacity="0.6"/>
<path d="M27.551 6.50195H19.874V20.2986H27.551V6.50195Z" fill="white" fill-opacity="0.6"/>
<path d="M20.361 13.4053C20.36 12.0768 20.6611 10.7655 21.2417 9.57056C21.8223 8.37564 22.667 7.32843 23.7121 6.5082C22.4177 5.49099 20.8633 4.85845 19.2265 4.68286C17.5897 4.50728 15.9365 4.79575 14.4559 5.51529C12.9753 6.23483 11.7269 7.35641 10.8536 8.75186C9.98023 10.1473 9.51709 11.7603 9.51709 13.4065C9.51709 15.0527 9.98023 16.6657 10.8536 18.0612C11.7269 19.4566 12.9753 20.5782 14.4559 21.2978C15.9365 22.0173 17.5897 22.3058 19.2265 22.1302C20.8633 21.9546 22.4177 21.3221 23.7121 20.3049C22.6667 19.4844 21.8217 18.4368 21.2412 17.2414C20.6606 16.046 20.3596 14.7342 20.361 13.4053Z" fill="white"/>
<path d="M37.9083 13.4039C37.9082 15.0502 37.445 16.6633 36.5715 18.0588C35.698 19.4543 34.4494 20.5759 32.9686 21.2953C31.4878 22.0148 29.8344 22.303 28.1975 22.1272C26.5606 21.9514 25.0062 21.3185 23.7119 20.301C24.7565 19.48 25.6011 18.4325 26.1818 17.2375C26.7625 16.0426 27.0643 14.7313 27.0643 13.4027C27.0643 12.074 26.7625 10.7628 26.1818 9.56778C25.6011 8.37279 24.7565 7.3253 23.7119 6.50433C25.0063 5.48667 26.561 4.85379 28.1981 4.67805C29.8352 4.50231 31.4888 4.7908 32.9697 5.51053C34.4506 6.23027 35.6991 7.3522 36.5724 8.74805C37.4458 10.1439 37.9087 11.7573 37.9083 13.4039Z" fill="#F2BDBD"/>
<path d="M37.0656 18.8368V18.5541H37.1802V18.498H36.895V18.5565H37.0096V18.8392L37.0656 18.8368ZM37.6286 18.8368V18.4956H37.553L37.4507 18.7393L37.3483 18.4956H37.2582V18.8368H37.3093V18.5809L37.4044 18.8027H37.4702L37.5652 18.5809V18.8392L37.6286 18.8368Z" fill="white" fill-opacity="0.6"/>
</svg>
