<svg width="38" height="12" viewBox="0 0 38 12" fill="none" xmlns="http://www.w3.org/2000/svg">
<path d="M15.0979 0.499023L13.1816 11.7445H16.2464L18.1643 0.499023H15.0979Z" fill="white" fill-opacity="0.6"/>
<path d="M10.6114 0.512131L7.60962 8.18123L7.28958 7.02326C6.69759 5.62802 5.01699 3.62423 3.04395 2.36142L5.78871 11.7395L9.03166 11.734L13.8583 0.509766L10.6114 0.512131Z" fill="white" fill-opacity="0.6"/>
<path d="M6.12645 1.31644C5.9483 0.631431 5.43198 0.427268 4.79112 0.402832H0.0394136L0 0.626702C3.69778 1.52376 6.14458 3.6852 7.15988 6.28413L6.12645 1.31644Z" fill="white" fill-opacity="0.6"/>
<path d="M24.3756 2.6552C25.3783 2.63944 26.1051 2.85858 26.6695 3.0856L26.9462 3.21566L27.3608 0.778327C26.7539 0.550516 25.8024 0.306152 24.6153 0.306152C21.5867 0.306152 19.4521 1.83146 19.4355 4.01734C19.4158 5.63251 20.9561 6.53429 22.1196 7.07268C23.3138 7.62447 23.7143 7.97525 23.7088 8.46792C23.6993 9.22072 22.7565 9.56598 21.876 9.56598C20.6487 9.56598 19.9968 9.39651 18.9902 8.97715L18.5952 8.79742L18.1641 11.3144C18.8814 11.6289 20.2049 11.8993 21.5789 11.9135C24.8005 11.9135 26.8942 10.4063 26.9162 8.07063C26.9297 6.79284 26.1122 5.81775 24.341 5.01765C23.2689 4.49582 22.6131 4.14898 22.6194 3.62241C22.6194 3.15497 23.1759 2.6552 24.3756 2.6552Z" fill="white" fill-opacity="0.6"/>
<path d="M35.2251 0.511719H32.8571C32.1216 0.511719 31.5746 0.71194 31.2514 1.44503L26.7007 11.7509H29.9192C29.9192 11.7509 30.4442 10.3651 30.5632 10.0616C30.9156 10.0616 34.0426 10.0664 34.488 10.0664C34.5795 10.4589 34.8617 11.7509 34.8617 11.7509H37.705L35.2251 0.511719ZM31.4453 7.75988C31.6975 7.11429 32.6663 4.61704 32.6663 4.61704C32.6498 4.64778 32.9162 3.96671 33.0747 3.54341L33.2812 4.51299C33.2812 4.51299 33.8684 7.19784 33.9914 7.75988H31.4453Z" fill="white" fill-opacity="0.6"/>
</svg>
