<svg width="24" height="20" viewBox="0 0 24 20" fill="none" xmlns="http://www.w3.org/2000/svg">
<path d="M22.8813 7.0621C22.5867 6.69249 22.1447 6.48046 21.6686 6.48046H17.3719L15.042 1.14541C14.8975 0.814628 14.5122 0.663465 14.1814 0.808005C13.8506 0.952457 13.6995 1.33779 13.844 1.66862L15.9454 6.4805H8.16907L10.2705 1.66862C10.4149 1.33779 10.2639 0.9525 9.93308 0.808005C9.6023 0.663465 9.21697 0.814541 9.07252 1.14541L6.74259 6.4805H2.4459C1.96979 6.4805 1.52781 6.69249 1.2332 7.06214C0.943987 7.42504 0.837271 7.89156 0.940414 8.34221L3.23496 18.3645C3.39518 19.0643 4.01426 19.5531 4.74044 19.5531H19.3741C20.1002 19.5531 20.7193 19.0643 20.8795 18.3645L23.1741 8.34217C23.2772 7.89151 23.1705 7.425 22.8813 7.0621ZM19.3741 18.2458H4.74044C4.62945 18.2458 4.53224 18.173 4.50927 18.0727L2.21473 8.05047C2.19673 7.97182 2.22693 7.91265 2.25552 7.87687C2.28201 7.84358 2.34201 7.78776 2.4459 7.78776H6.17171L6.0005 8.17981C5.85605 8.51063 6.00708 8.89592 6.33791 9.04042C6.42305 9.07763 6.51177 9.09523 6.59914 9.09523C6.85109 9.09523 7.09119 8.94869 7.19847 8.70306L7.59819 7.78785H16.5164L16.9161 8.70306C17.0234 8.94874 17.2635 9.09523 17.5154 9.09523C17.6028 9.09523 17.6915 9.07763 17.7767 9.04042C18.1075 8.89596 18.2586 8.51063 18.1141 8.17981L17.9429 7.78776H21.6687C21.7726 7.78776 21.8326 7.84358 21.8591 7.87687C21.8876 7.91269 21.9179 7.97186 21.8999 8.05043L19.6053 18.0727C19.5823 18.173 19.485 18.2458 19.3741 18.2458Z" fill="white" stroke="white" stroke-width="0.341816"/>
<path d="M8.13532 10.62C7.77434 10.62 7.48169 10.9126 7.48169 11.2736V16.0669C7.48169 16.4279 7.77434 16.7205 8.13532 16.7205C8.4963 16.7205 8.78895 16.4279 8.78895 16.0669V11.2736C8.78895 10.9126 8.49634 10.62 8.13532 10.62Z" fill="white" stroke="white" stroke-width="0.341816"/>
<path d="M12.057 10.62C11.696 10.62 11.4034 10.9126 11.4034 11.2736V16.0669C11.4034 16.4279 11.696 16.7205 12.057 16.7205C12.418 16.7205 12.7106 16.4279 12.7106 16.0669V11.2736C12.7106 10.9126 12.418 10.62 12.057 10.62Z" fill="white" stroke="white" stroke-width="0.341816"/>
<path d="M15.9791 10.62C15.6182 10.62 15.3255 10.9126 15.3255 11.2736V16.0669C15.3255 16.4279 15.6182 16.7205 15.9791 16.7205C16.3401 16.7205 16.6328 16.4279 16.6328 16.0669V11.2736C16.6327 10.9126 16.3401 10.62 15.9791 10.62Z" fill="white" stroke="white" stroke-width="0.341816"/>
</svg>
