<svg width="18" height="17" viewBox="0 0 18 17" fill="none" xmlns="http://www.w3.org/2000/svg">
<path d="M16.4095 2.19471C15.4955 1.26928 14.2782 0.757194 12.9849 0.757194C11.6916 0.757194 10.4706 1.26928 9.55667 2.19836C9.41157 2.34529 9.17436 2.34529 9.02926 2.19836L9.02203 2.19105C8.10447 1.26197 6.88707 0.749878 5.5902 0.749878C4.29694 0.749878 3.08316 1.25831 2.16921 2.18739C1.25164 3.11647 0.749512 4.34915 0.749512 5.65864C0.749512 6.96813 1.25526 8.2008 2.17282 9.12623L8.77277 15.809C8.91005 15.948 9.09789 16.0285 9.29658 16.0285C9.49165 16.0285 9.6795 15.948 9.82038 15.809L16.4023 9.1372C17.3198 8.20812 17.822 6.97544 17.8256 5.66595C17.8292 4.35646 17.3235 3.12379 16.4095 2.19471Z" fill="#FFA900" fill-opacity="0.45"/>
</svg>
