<svg width="16" height="19" viewBox="0 0 16 19" fill="none" xmlns="http://www.w3.org/2000/svg">
<path d="M14.5036 8.89582C14.1003 8.01676 13.514 7.22775 12.7815 6.57817L12.1769 6.04101C12.1564 6.02327 12.1317 6.01068 12.105 6.00435C12.0783 5.99802 12.0503 5.99814 12.0237 6.00469C11.997 6.01124 11.9724 6.02404 11.9521 6.04195C11.9317 6.05985 11.9162 6.08233 11.9069 6.1074L11.6368 6.85782C11.4685 7.32859 11.159 7.80943 10.7207 8.28221C10.6916 8.31239 10.6583 8.32043 10.6355 8.32245C10.6126 8.32446 10.5773 8.32043 10.5462 8.29227C10.5171 8.26813 10.5025 8.23191 10.5046 8.1957C10.5815 6.98457 10.2076 5.61852 9.38905 4.13177C8.71182 2.89649 7.77075 1.93282 6.59493 1.26086L5.73697 0.771984C5.62479 0.707605 5.48144 0.792103 5.48768 0.918849L5.53338 1.88454C5.56454 2.54442 5.4856 3.12786 5.29863 3.61271C5.07012 4.20621 4.74189 4.75745 4.32225 5.25237C4.03021 5.59632 3.69922 5.90742 3.33548 6.17983C2.45945 6.832 1.74712 7.66766 1.25184 8.62422C0.757777 9.58913 0.50042 10.6515 0.499817 11.7285C0.499817 12.6781 0.693016 13.5975 1.07526 14.4646C1.44434 15.2995 1.97698 16.0571 2.6437 16.6958C3.31678 17.3395 4.09789 17.8465 4.96832 18.1986C5.86992 18.5648 6.82553 18.7498 7.8123 18.7498C8.79907 18.7498 9.75467 18.5648 10.6563 18.2006C11.5246 17.8506 12.3141 17.3401 12.9809 16.6978C13.654 16.054 14.1816 15.3015 14.5493 14.4666C14.931 13.6019 15.1268 12.6709 15.1248 11.7305C15.1248 10.7487 14.917 9.79512 14.5036 8.89582Z" fill="#FFD481"/>
</svg>
