<svg width="14" height="16" viewBox="0 0 14 16" fill="none" xmlns="http://www.w3.org/2000/svg">
<path d="M7.06067 8.06271C8.85885 8.06271 10.4476 6.46756 10.6032 4.5066C10.6805 3.52146 10.3525 2.60275 9.67943 1.92022C9.0135 1.24603 8.08256 0.874756 7.06067 0.874756C6.03061 0.874756 5.09898 1.24378 4.43782 1.9138C3.76917 2.5912 3.44318 3.51184 3.51812 4.50596C3.67106 6.46724 5.25942 8.06271 7.06067 8.06271Z" fill="#FFA900" fill-opacity="0.45"/>
<path d="M13.7037 13.9325C13.4333 12.3988 12.5893 11.1105 11.2632 10.2064C10.0854 9.40352 8.59304 8.9613 7.06096 8.9613C5.52889 8.9613 4.03654 9.40352 2.85874 10.2061C1.53263 11.1102 0.6886 12.3985 0.418253 13.9322C0.356432 14.2837 0.440355 14.6312 0.64856 14.8857C0.742995 15.0017 0.86157 15.0947 0.995625 15.1578C1.12968 15.221 1.27583 15.2527 1.4234 15.2507H12.6985C12.8462 15.2528 12.9924 15.2212 13.1266 15.1581C13.2608 15.095 13.3795 15.0021 13.474 14.8861C13.6816 14.6315 13.7655 14.284 13.7037 13.9325Z" fill="#FFA900" fill-opacity="0.45"/>
</svg>
