<svg width="22" height="20" viewBox="0 0 22 20" fill="none" xmlns="http://www.w3.org/2000/svg">
<path d="M20.1756 1.86141C18.9981 0.669166 17.4296 0.0094249 15.7635 0.0094249C14.0973 0.0094249 12.5242 0.669166 11.3467 1.86612L11.007 2.21013L10.6579 1.8567C9.47577 0.659741 7.90733 0 6.23651 0C4.57034 0 3.00655 0.655029 1.82906 1.85199C0.646921 3.04894 0 4.63703 0 6.32409C0 8.01114 0.651575 9.59923 1.83372 10.7915L10.3368 19.4011C10.5136 19.5802 10.7556 19.6838 11.0116 19.6838C11.2629 19.6838 11.505 19.5802 11.6865 19.4011L20.1663 10.8056C21.3484 9.60865 21.9953 8.02056 22 6.33351C22.0046 4.64646 21.3531 3.05837 20.1756 1.86141Z" fill="#DADADA"/>
</svg>
