<svg width="29" height="29" viewBox="0 0 29 29" fill="none" xmlns="http://www.w3.org/2000/svg">
<path d="M22.6014 15.0616L19.5376 18.1244H17.9176C18.052 17.7461 18.1252 17.3394 18.1252 16.9161C18.1252 14.9195 16.4968 13.2911 14.5002 13.2911H8.65446L7.25 12.8233V10.8748C7.25 10.2075 6.70903 9.6665 6.04169 9.6665H1.20831C0.540975 9.6665 0 10.2075 0 10.8748V27.7915C0 28.4588 0.540975 28.9998 1.20831 28.9998H6.04163C6.70897 28.9998 7.24994 28.4588 7.24994 27.7915V26.5827H14.447C17.868 26.5827 21.2177 25.6073 24.1049 23.7706L24.3109 23.6054L27.7281 20.187C29.14 18.7769 29.14 16.4732 27.728 15.0611C26.3159 13.649 24.0122 13.649 22.6014 15.0616ZM4.83331 26.5831H2.41669V12.0831H4.83337V26.5831H4.83331ZM26.0197 18.4777L22.6975 21.801C20.2231 23.3462 17.365 24.166 14.447 24.166H7.25023V15.3705L8.07678 15.6458C8.19986 15.6868 8.32878 15.7077 8.45854 15.7077H14.5002C15.1621 15.7077 15.7085 16.2542 15.7085 16.916C15.7085 17.5778 15.162 18.1243 14.5002 18.1243C12.8891 18.1243 12.8891 20.541 14.5002 20.541H20.038C20.3585 20.541 20.6657 20.4137 20.8923 20.1872L24.3107 16.77C24.7783 16.3018 25.551 16.3018 26.0191 16.7699C26.4872 17.2379 26.4873 18.0107 26.0197 18.4777Z" fill="#FFD481"/>
<path d="M27.7915 0H18.1248C17.4575 0 16.9165 0.540975 16.9165 1.20831V10.875C16.9165 11.5423 17.4575 12.0833 18.1248 12.0833H27.7915C28.4588 12.0833 28.9998 11.5423 28.9998 10.875V1.20831C28.9998 0.540975 28.4588 0 27.7915 0ZM26.5831 9.66669H19.3331V2.41669H21.7498V4.83337C21.7498 5.50071 22.2908 6.04169 22.9581 6.04169C23.6255 6.04169 24.1664 5.50071 24.1664 4.83337V2.41669H26.5831V9.66669Z" fill="#FFD481"/>
</svg>
