<svg width="22" height="22" viewBox="0 0 22 22" fill="none" xmlns="http://www.w3.org/2000/svg">
<g clip-path="url(#clip0_549_8188)">
<path d="M17.387 13.6282C16.9367 13.1592 16.3934 12.9084 15.8176 12.9084C15.2465 12.9084 14.6986 13.1545 14.2296 13.6235L12.7624 15.0861C12.6416 15.0211 12.5209 14.9608 12.4048 14.9004C12.2377 14.8168 12.0798 14.7379 11.9452 14.6543C10.5708 13.7814 9.32172 12.6438 8.12376 11.1719C7.54336 10.4382 7.15332 9.82069 6.87008 9.19385C7.25083 8.8456 7.60372 8.48343 7.94732 8.13518C8.07733 8.00517 8.20734 7.87052 8.33735 7.74051C9.31243 6.76543 9.31243 5.50246 8.33735 4.52738L7.06974 3.25977C6.9258 3.11583 6.77722 2.96725 6.63792 2.81866C6.35933 2.53078 6.0668 2.23361 5.76499 1.95502C5.3146 1.50927 4.77598 1.27246 4.2095 1.27246C3.64303 1.27246 3.09512 1.50927 2.6308 1.95502C2.62615 1.95966 2.62615 1.95966 2.62151 1.96431L1.0428 3.55694C0.448469 4.15128 0.109512 4.87562 0.0352196 5.71605C-0.0762184 7.07188 0.323101 8.33485 0.629556 9.16134C1.38176 11.1904 2.50543 13.071 4.18164 15.0861C6.21539 17.5146 8.66238 19.4322 11.4576 20.7834C12.5256 21.2895 13.951 21.8885 15.5437 21.9906C15.6412 21.9953 15.7433 21.9999 15.8362 21.9999C16.9088 21.9999 17.8096 21.6145 18.5154 20.8484C18.52 20.8391 18.5293 20.8345 18.5339 20.8252C18.7754 20.5327 19.054 20.268 19.3465 19.9848C19.5462 19.7944 19.7505 19.5947 19.9501 19.3858C20.4098 18.9075 20.6513 18.3503 20.6513 17.7792C20.6513 17.2035 20.4052 16.6509 19.9362 16.1866L17.387 13.6282ZM19.0493 18.5175C19.0447 18.5175 19.0447 18.5221 19.0493 18.5175C18.8682 18.7125 18.6825 18.889 18.4829 19.084C18.181 19.3719 17.8746 19.6737 17.5867 20.0126C17.1177 20.5141 16.5652 20.7509 15.8408 20.7509C15.7712 20.7509 15.6969 20.7509 15.6273 20.7463C14.2482 20.658 12.9667 20.1194 12.0055 19.6597C9.37744 18.3875 7.06974 16.5813 5.15208 14.2921C3.56873 12.3838 2.51007 10.6193 1.80894 8.72488C1.37712 7.56871 1.21925 6.66792 1.2889 5.8182C1.33533 5.27494 1.54428 4.82455 1.92967 4.43916L3.51301 2.85581C3.74053 2.64222 3.98198 2.52614 4.21879 2.52614C4.51131 2.52614 4.74812 2.70258 4.8967 2.85117C4.90135 2.85581 4.90599 2.86045 4.91063 2.8651C5.19387 3.12976 5.46318 3.40371 5.74642 3.69624C5.89036 3.84482 6.03894 3.99341 6.18753 4.14663L7.45513 5.41424C7.94732 5.90643 7.94732 6.36146 7.45513 6.85365C7.32048 6.9883 7.19047 7.12296 7.05581 7.25297C6.66578 7.65229 6.29432 8.02375 5.89036 8.38592C5.88107 8.39521 5.87179 8.39985 5.86714 8.40914C5.46782 8.80846 5.54211 9.19849 5.62569 9.46315C5.63034 9.47708 5.63498 9.49101 5.63962 9.50494C5.96929 10.3036 6.43362 11.0558 7.13939 11.9519L7.14404 11.9566C8.42557 13.5353 9.77676 14.7657 11.2672 15.7083C11.4576 15.8291 11.6526 15.9266 11.8384 16.0194C12.0055 16.103 12.1634 16.1819 12.298 16.2655C12.3166 16.2748 12.3352 16.2887 12.3538 16.298C12.5116 16.377 12.6602 16.4141 12.8134 16.4141C13.1988 16.4141 13.4403 16.1727 13.5192 16.0937L15.1072 14.5057C15.2651 14.3479 15.5158 14.1575 15.8083 14.1575C16.0962 14.1575 16.333 14.3386 16.477 14.4964C16.4816 14.5011 16.4816 14.5011 16.4863 14.5057L19.0447 17.0642C19.5229 17.5378 19.5229 18.0253 19.0493 18.5175Z" fill="white"/>
<path d="M11.8895 5.23324C13.106 5.43755 14.2111 6.01331 15.0934 6.89553C15.9756 7.77774 16.5467 8.88284 16.7556 10.0994C16.8067 10.4058 17.0714 10.6194 17.3732 10.6194C17.4103 10.6194 17.4428 10.6148 17.48 10.6101C17.8236 10.5544 18.0511 10.2294 17.9954 9.88578C17.7447 8.41387 17.0482 7.07197 15.9849 6.00867C14.9216 4.94536 13.5797 4.24887 12.1077 3.99814C11.7641 3.94242 11.4438 4.16994 11.3834 4.5089C11.323 4.84785 11.5459 5.17752 11.8895 5.23324Z" fill="white"/>
<path d="M21.9745 9.70466C21.5612 7.28089 20.419 5.07534 18.6638 3.32019C16.9087 1.56505 14.7031 0.422806 12.2794 0.0095565C11.9404 -0.0508058 11.62 0.181357 11.5597 0.520314C11.5039 0.863915 11.7315 1.1843 12.0751 1.24466C14.2388 1.61148 16.2122 2.63764 17.7816 4.20241C19.351 5.77183 20.3725 7.74521 20.7394 9.90897C20.7904 10.2154 21.0551 10.429 21.3569 10.429C21.3941 10.429 21.4266 10.4244 21.4637 10.4197C21.8027 10.3686 22.0348 10.0436 21.9745 9.70466Z" fill="white"/>
</g>
<defs>
<clipPath id="clip0_549_8188">
<rect width="22" height="22" fill="white"/>
</clipPath>
</defs>
</svg>
